<svg id="Ebene_1" data-name="Ebene 1" xmlns="http://www.w3.org/2000/svg" xmlns:xlink="http://www.w3.org/1999/xlink" viewBox="0 0 617.676 103.465"><defs><clipPath id="clip-path"><rect width="617.676" height="103.465" fill="none"/></clipPath></defs><title>Logo-Zeichenfläche 1</title><g clip-path="url(#clip-path)"><path d="M113.3877,34.4294v60.53a7.086,7.086,0,1,0,14.172,0v-60.53a7.086,7.086,0,0,0-14.172,0m-19.844,20.844a46.8243,46.8243,0,0,0-46.771-46.772H7.0867a7.0865,7.0865,0,1,0,0,14.173h39.686a32.599,32.599,0,0,1,0,65.198H7.0867a7.087,7.087,0,0,0,0,14.174h39.686a46.8252,46.8252,0,0,0,46.771-46.773m35.433-46.77a8.504,8.504,0,1,0-8.504,8.504,8.5027,8.5027,0,0,0,8.504-8.504m97.796,46.77a32.5985,32.5985,0,1,1-32.598-32.599,32.6346,32.6346,0,0,1,32.598,32.599m14.173,0a46.7715,46.7715,0,1,0-46.771,46.773,46.8243,46.8243,0,0,0,46.771-46.773m113.387,39.686V55.2744a46.772,46.772,0,1,0-93.544,0v39.685a7.0865,7.0865,0,1,0,14.173,0V55.2744a32.5985,32.5985,0,1,1,65.197,0v39.685a7.087,7.087,0,1,0,14.174,0m98.436-46.772h-63.646a32.603,32.603,0,0,1,63.646,0m14.949,7.086a46.7721,46.7721,0,1,0-11.733,30.983,7.0864,7.0864,0,0,0-10.614-9.392,32.6029,32.6029,0,0,1-56.248-14.504h71.508a7.0871,7.0871,0,0,0,7.087-7.087m54.957,0a7.0869,7.0869,0,0,0-7.0871-7.086H492.91a7.0865,7.0865,0,1,0,0,14.173h22.6779a7.0871,7.0871,0,0,0,7.0871-7.087" fill="#23406c"/><path d="M522.6474,88.9461a8.5044,8.5044,0,1,0,12.027,12.027l26.446-26.445a8.5047,8.5047,0,0,0-12.028-12.027Zm38.474-42.038a8.5044,8.5044,0,0,0-.001-12.026l-26.445-26.445a8.5037,8.5037,0,1,0-12.026,12.026l26.444,26.445a8.5053,8.5053,0,0,0,12.028,0m15.59,15.594a8.5065,8.5065,0,0,0,0,12.027l26.446,26.446a8.5047,8.5047,0,1,0,12.027-12.028l-26.445-26.445a8.5077,8.5077,0,0,0-12.028,0m38.474-54.064a8.5047,8.5047,0,0,0-12.027,0l-26.445,26.445a8.504,8.504,0,0,0,12.027,12.026l26.444-26.445a8.5044,8.5044,0,0,0,.001-12.026" fill="#6c68a1"/></g></svg>